<svg width="260" height="107" viewBox="0 0 260 107" fill="none" xmlns="http://www.w3.org/2000/svg">
<g clip-path="url(#clip0_60_1659)">
<path d="M13.9086 35.0894C19.7966 32.3322 32.7931 30.0817 33.2433 54.0009C33.2433 54.0245 32.8049 72.3703 19.1095 74.4206C7.58212 76.0112 3.23417 70.3201 3.21048 60.1633C3.21048 58.3841 3.3408 56.3339 3.62513 54.213C3.62513 54.213 2.98538 58.0777 3.00908 62.6966C3.03277 67.8693 3.83838 74.0553 7.49919 77.708C12.2025 82.5036 13.0556 90.4099 13.0911 94.687C13.1148 96.6783 12.9726 97.9155 12.9726 97.9155C8.66022 97.9509 4.35966 97.9862 0.0472605 98.0216C0.0354133 79.2633 0.023566 60.5168 0.0117188 41.7585C3.63698 39.9675 7.28594 38.2472 10.9586 36.6094C10.9586 36.6094 12.1078 35.8435 13.9204 35.0659L13.9086 35.0894ZM22.486 60.9528C22.4386 57.5122 21.4908 53.8595 20.5904 52.6341C18.7896 50.2304 15.6146 45.694 8.58914 48.3687C8.00862 48.5808 7.35702 48.8282 6.70542 49.1581C6.70542 49.0992 11.16 52.3395 11.2311 58.7494C11.2903 64.6172 13.0319 70.4851 17.7826 69.6603C18.0788 69.6014 18.4461 69.5425 18.8133 69.3893C21.6211 68.2817 22.5334 64.6644 22.4741 60.9528H22.486Z" fill="white"/>
<path d="M65.29 18.2869C65.7402 44.6923 66.1904 71.0976 66.6406 97.503C63.1101 97.5148 59.5677 97.5383 56.0373 97.5501C55.8595 87.8057 55.6818 78.0613 55.5041 68.3287C51.5116 68.7529 47.5309 69.2006 43.5621 69.6837C45.7301 76.9537 48.0877 82.362 48.3721 97.5973C44.3914 97.6208 40.3989 97.6444 36.4182 97.6679C36.4182 97.6679 35.6955 57.3471 35.5652 50.4541C35.5296 43.8439 34.0369 26.5231 65.29 18.2751V18.2869ZM55.4449 65.2651C55.2079 52.0801 54.9592 38.8951 54.7222 25.7219C54.7222 25.7219 54.4971 25.7808 54.118 25.8751C51.3931 26.4878 39.8302 31.0242 40.1738 48.7574C40.3278 57.0407 41.631 62.72 42.7565 66.8676C46.9741 66.2902 51.2036 65.76 55.4449 65.2769V65.2651Z" fill="white"/>
<path d="M104.197 98.0686C100.062 98.0686 95.9272 98.0686 91.7806 98.0804C91.7806 98.0804 89.5415 79.817 82.7886 73.0301C78.4169 68.6351 76.0475 62.6494 74.768 58.1248C73.3463 54.5781 72.671 50.1478 72.5881 44.9869C72.5525 42.5125 72.6592 39.9085 72.9198 37.0688C72.9198 37.0688 72.3156 42.2297 72.4222 48.5689C72.5407 55.78 73.5122 64.5582 77.3033 70.0726C82.2554 77.3779 83.1558 87.9943 83.2269 93.5793C83.2625 95.9948 83.1321 97.5384 83.1321 97.5384C78.8197 97.5502 74.5073 97.5619 70.1949 97.5855C69.7566 71.133 69.3182 44.6806 68.8799 18.2399C72.7539 17.4151 76.6398 16.6727 80.5494 16.0129C80.5494 16.0129 81.7697 15.4709 83.6771 15.1645C90.0272 14.0098 103.545 15.9304 103.758 44.4802C103.758 44.9633 103.083 66.7498 88.2383 67.4332C86.6508 67.5157 85.2054 67.3861 83.9141 67.0208C86.7574 69.8251 90.7262 72.276 95.5362 75.9404C103.853 82.3149 104.197 98.0804 104.197 98.0568V98.0686ZM78.2274 30.7414C77.5402 30.8475 76.8531 30.9418 76.1778 31.1656C76.1778 31.1421 80.9167 36.9039 81.0352 45.3875C81.1536 53.2702 82.8596 61.3415 87.7052 61.0351C91.4963 60.7877 92.6573 56.2513 92.5981 50.8665C92.5507 46.5069 91.6622 41.8762 90.6433 39.9556C88.8425 36.3265 85.5371 29.6456 78.2274 30.7414Z" fill="white"/>
<path d="M137.037 11.123C136.978 39.8732 136.907 68.6115 136.848 97.3617C133.305 97.3617 129.775 97.3617 126.233 97.3617C126.221 86.3918 126.209 75.422 126.197 64.4522C122.169 64.4758 118.141 64.5229 114.113 64.6172C116.21 73.3836 118.508 79.7935 118.567 97.3617C114.575 97.3617 110.594 97.3617 106.602 97.3735C106.602 97.3735 106.246 48.781 106.175 40.4741C106.128 32.4618 104.979 11.1702 137.037 11.123ZM126.197 60.9998C126.173 46.1534 126.161 31.3188 126.138 16.4725C126.138 16.4725 125.901 16.4725 125.522 16.4725C122.738 16.4253 110.772 18.2635 110.914 39.4372C110.973 49.2641 112.241 56.1924 113.331 61.2001C117.62 61.0941 121.908 61.0234 126.197 60.9998Z" fill="white"/>
<path d="M148.636 11.7477C159.393 12.3015 176.074 19.9014 175.624 50.9845C174.961 97.4796 155.59 97.5268 155.59 97.4914C150.318 97.4914 145.058 97.4796 139.786 97.4678C139.881 69.1301 139.964 40.8041 140.059 12.4664C140.059 12.4664 143.696 11.4177 148.636 11.7359V11.7477ZM163.86 61.648C164.168 33.5106 156.822 22.6468 148.494 22.1519C146.8 22.0576 145.106 22.3169 143.482 23.0592C143.482 23.0592 143.565 23.0592 143.791 23.071C145.485 23.1181 152.261 24.6734 152.119 43.8206C151.965 65.7013 151.811 88.5011 151.811 88.5011C151.811 88.8428 151.704 93.7445 154.785 93.7562C157.723 93.7562 163.587 86.4509 163.848 61.648H163.86Z" fill="white"/>
<path d="M187.637 97.5854C184.225 97.5737 180.813 97.5619 177.401 97.5501C177.78 70.1432 178.171 42.7245 178.551 15.3176C182.022 15.895 185.481 16.543 188.929 17.25C188.502 44.0324 188.064 70.803 187.637 97.5854Z" fill="white"/>
<path d="M222.48 30.6589C222.338 38.5299 218.334 40.8629 214.507 39.9909C212.185 39.4371 210.029 37.764 208.643 35.2071C206.095 30.5529 203.11 27.8664 201.143 27.4186C199.556 27.0534 198.632 28.2199 198.584 30.5175C198.525 33.4279 200.622 36.1969 207.742 42.9249C216.343 51.3614 228.617 66.3138 228.392 79.7816C228.38 80.7007 228.356 81.7258 228.191 82.633C225.916 97.3616 215.514 97.939 208.228 97.88C199.354 97.8565 196.404 94.3334 193.194 88.4066C191.665 85.6141 190.244 79.7934 190.35 73.8195C190.493 65.1473 195.03 56.5105 203.702 57.7712C207.695 58.3368 208.216 62.0602 208.228 62.0602C205.219 62.0955 199.71 69.9547 199.52 80.8185C199.402 87.3815 201.653 92.3185 208.56 92.6485C216.912 92.7781 217.41 81.7847 217.41 81.5961C217.469 66.3845 207.197 57.3117 199.923 49.4526C193.987 43.1134 193.573 35.3367 193.62 32.7091C193.833 19.9483 199.852 19.9837 202.032 20.5728C202.636 20.726 203.015 20.9263 203.015 20.9263C209.472 22.5759 215.893 24.4611 222.255 26.5585C222.456 28.0667 222.504 29.4217 222.48 30.6707V30.6589Z" fill="white"/>
<path d="M259.976 78.9333C259.976 85.2961 259.976 91.6706 259.964 98.0333C253.756 97.9744 247.536 97.9273 241.328 97.8801C237.893 97.8566 234.469 97.833 231.033 97.8095C231.412 75.1511 231.791 52.4926 232.159 29.8342C241.589 33.3337 250.889 37.3399 260 41.8527C260 48.2155 260 54.59 259.988 60.9527C259.988 61.047 256.031 47.9209 252.465 43.5495C251.245 42.0766 249.444 41.0633 247.714 40.3563C245.392 39.4019 243.129 39.1191 242.11 39.0013C241.98 48.675 241.85 58.3487 241.731 68.0106C243.959 68.2581 247.667 67.4686 248.105 59.8687C248.046 65.5009 247.987 71.1213 247.939 76.7535C247.939 75.6106 247.489 70.7443 241.708 69.6367C241.601 77.3073 241.506 84.9779 241.4 92.6368C242.442 93.0256 244.764 93.6972 247.157 93.7797C248.958 93.8386 250.759 93.5794 252.109 92.6839C255.889 90.0564 259.988 78.8273 259.976 78.9216V78.9333ZM247.927 77.0127C247.927 76.9303 247.927 76.8478 247.927 76.7653C247.927 76.9303 247.927 77.0127 247.927 77.0127Z" fill="white"/>
<path d="M166.276 107C166.205 106.965 166.134 106.906 166.051 106.894C163.931 106.47 161.774 106.434 159.606 106.364C157.308 106.281 155.022 105.951 152.854 105.15C152.32 104.95 151.823 104.643 151.373 104.302C150.875 103.913 150.887 103.406 151.408 103.029C151.906 102.676 152.463 102.405 153.008 102.122C153.209 102.016 153.446 101.957 153.659 101.898C154.05 101.78 154.37 101.592 154.678 101.321C155.946 100.166 157.427 99.459 159.156 99.3058C160.057 99.2233 160.839 98.8345 161.561 98.2807C162.248 97.7623 162.936 97.2438 163.646 96.7725C164.322 96.3247 165.127 96.1951 165.921 96.1009C167.746 95.8888 169.57 95.7003 171.394 95.5C171.56 95.4764 171.726 95.4764 171.892 95.4882C172.129 95.4882 172.188 95.3821 172.165 95.1582C171.999 93.5794 171.868 92.0005 171.691 90.4333C171.537 89.043 171.335 87.6644 171.134 86.274C170.932 84.9072 170.719 83.5404 170.494 82.1736C170.293 81.0306 170.079 79.8759 169.842 78.7448C169.57 77.4369 169.286 76.1172 168.978 74.8211C168.646 73.4189 168.326 72.0167 167.923 70.6382C167.331 68.5644 166.727 66.4788 166.04 64.4286C165.305 62.2605 164.511 60.1279 163.67 57.9952C162.675 55.4618 161.502 53.011 160.199 50.6309C160.045 50.3363 159.879 50.0535 159.701 49.7707C159.642 49.6765 159.524 49.6293 159.429 49.5586C159.37 49.6529 159.263 49.7472 159.251 49.8532C159.121 50.8194 159.002 51.7856 158.896 52.7636C158.86 53.1406 158.86 53.5059 158.836 53.8829C158.825 54.1893 158.659 54.4014 158.362 54.425C158.09 54.4485 158.078 54.5781 158.114 54.7902C158.268 55.886 158.422 56.9936 158.564 58.0894C158.588 58.2779 158.564 58.4783 158.564 58.6786C158.528 58.6903 158.505 58.7139 158.469 58.7257C158.185 58.2308 157.9 57.7477 157.616 57.2528C157.592 57.2528 157.557 57.2528 157.533 57.2646C157.758 58.9024 158.161 60.5285 158.256 62.1781C158.22 62.1898 158.185 62.2016 158.149 62.2134C157.889 61.7068 157.628 61.1883 157.367 60.6816C157.332 60.6816 157.308 60.7052 157.273 60.7052C157.296 61.0233 157.32 61.3533 157.367 61.6714C157.486 62.5669 157.604 63.4624 157.723 64.3579C157.758 64.6525 157.829 64.947 157.865 65.2416C157.877 65.3594 157.829 65.489 157.818 65.6069C157.699 65.5833 157.569 65.5715 157.45 65.5362C157.332 65.5008 157.225 65.4301 157.059 65.3359C157.142 65.8661 157.237 66.3138 157.284 66.7616C157.344 67.3154 157.355 67.881 157.367 68.4348C157.367 68.5644 157.261 68.6822 157.201 68.8118C157.071 68.7411 156.893 68.7058 156.822 68.5997C156.467 68.0695 156.076 67.551 155.815 66.9855C155.033 65.2887 154.607 63.4977 154.488 61.6361C154.488 61.5418 154.465 61.4475 154.453 61.3533C154.429 61.3533 154.394 61.3533 154.37 61.3533C154.287 61.6832 154.216 62.0131 154.097 62.3312C153.991 62.6376 153.849 62.944 153.695 63.2974C153.15 62.5905 153.695 57.7713 154.323 55.5797C155.045 53.0699 156.171 50.7723 157.818 48.7221C156.988 49.0284 156.491 49.7707 155.732 50.1714C155.697 50.1596 155.661 50.136 155.626 50.1242C155.709 49.8532 155.78 49.594 155.863 49.323C155.851 49.3112 155.839 49.2994 155.815 49.2759C155.732 49.3583 155.638 49.429 155.555 49.5233C154.808 50.2892 154.062 51.0551 153.316 51.8209C153.233 51.9034 153.126 51.9741 153.031 52.0566C152.806 52.2805 152.628 52.1627 152.557 51.9388C152.427 51.491 152.344 51.0197 152.237 50.5602C152.214 50.4541 152.214 50.3481 152.202 50.1478C152.083 50.2774 152.024 50.3245 151.989 50.3952C151.479 51.4321 150.958 52.469 150.449 53.4941C150.401 53.5884 150.354 53.6709 150.295 53.7533C150.046 54.095 149.785 54.1068 149.513 53.7769C149.394 53.6355 149.311 53.4705 149.193 53.282C149.122 53.3763 149.074 53.4234 149.039 53.4823C148.47 54.425 147.901 55.3676 147.333 56.3102C147.297 56.3809 147.25 56.4398 147.202 56.4987C146.811 56.9583 146.586 56.9347 146.278 56.3456C145.852 57.6063 145.461 58.8435 144.726 59.904C144.679 59.904 144.632 59.904 144.584 59.904L144.217 58.4547H144.146C144.063 58.8907 144.004 59.3502 143.897 59.7862C143.802 60.2103 143.755 60.6699 143.376 61.1176C143.234 60.7641 143.115 60.4813 142.997 60.2103C142.961 60.2103 142.937 60.1986 142.902 60.1868C142.689 61.1647 142.487 62.1427 142.262 63.156C141.824 63.0971 141.705 62.6258 141.338 62.4255C141.148 63.5213 141.196 64.6525 140.663 65.7483C139.644 64.3108 139.893 62.7908 140.058 61.2708C139.608 61.1883 139.561 61.1765 139.62 60.6699C139.727 59.8097 139.916 58.9613 140.07 58.113C140.07 58.0541 140.106 57.9834 140.13 57.9009C139.798 57.8773 139.81 57.6417 139.904 57.4531C140.153 56.9347 140.39 56.3927 140.722 55.9214C142.096 53.9536 143.613 52.1037 145.603 50.7016C147.617 49.2876 149.856 48.3686 152.273 47.909C152.936 47.7794 153.612 47.7205 154.275 47.6145C154.346 47.6145 154.417 47.5791 154.512 47.4849C154.382 47.4495 154.24 47.3906 154.109 47.4024C153.624 47.4259 153.138 47.4731 152.652 47.5084C152.569 47.5084 152.486 47.5084 152.403 47.4966C152.403 47.4024 152.403 47.2963 152.439 47.2256C152.652 46.9075 152.889 46.6012 153.126 46.2948C153.173 46.2241 153.221 46.1652 153.221 46.0238C152.948 46.1298 152.676 46.2123 152.403 46.3301C151.562 46.6954 150.733 47.0725 149.892 47.4377C149.761 47.4966 149.584 47.4731 149.441 47.4966C149.441 47.3435 149.453 47.1785 149.465 47.0253C149.465 46.99 149.489 46.9428 149.536 46.7897C147.89 47.4024 146.373 48.0976 144.774 48.7692C144.833 48.1094 145.295 47.6852 145.473 47.1078C145.307 47.2374 145.141 47.367 144.975 47.4849C144.087 48.1447 143.198 48.7928 142.309 49.4408C142.179 49.5351 142.001 49.5822 141.812 49.6176C141.966 48.6042 142.606 47.8383 142.997 46.9429C142.203 47.261 141.575 47.8148 140.911 48.2979C140.248 48.781 139.656 49.3701 138.815 49.6765C138.815 49.1109 139.229 48.781 139.359 48.3214C138.874 48.7338 138.518 49.2876 137.938 49.5704C137.902 49.5469 137.855 49.5351 137.819 49.5115C137.902 49.2169 137.973 48.9224 138.08 48.6396C138.886 46.4244 140.603 45.1519 142.712 44.3153C142.997 44.1974 143.293 44.115 143.589 43.9736C143.316 43.844 143.008 43.7968 142.997 43.3609C143.459 43.243 143.921 43.1016 144.406 42.9956C146.349 42.5714 148.304 42.4772 150.283 42.595C152.818 42.7482 155.057 43.6319 156.941 45.3639C157 45.4229 157.071 45.47 157.178 45.4936C156.692 44.3153 156.171 43.1488 155.969 41.888C155.993 41.8644 156.029 41.8409 156.052 41.8173C156.147 41.9823 156.23 42.1472 156.325 42.3122C156.372 42.2768 156.431 42.2415 156.479 42.2179C156.491 42.0883 156.514 41.9469 156.514 41.8173C156.42 39.8496 157.355 38.4828 159.002 37.5166C159.168 37.4223 159.369 37.3752 159.559 37.328C159.642 37.3045 159.784 37.328 159.82 37.3987C159.867 37.4577 159.843 37.5873 159.82 37.6698C159.63 38.0704 159.417 38.4474 159.227 38.848C159.168 38.9659 159.156 39.1073 159.109 39.2369C159.133 39.2604 159.156 39.2722 159.18 39.2958C159.381 39.1897 159.583 39.0837 159.796 38.9659L159.879 39.0012C159.595 39.6964 159.298 40.4034 159.014 41.0986C159.05 41.1221 159.085 41.1457 159.133 41.1693C159.298 41.0514 159.452 40.9336 159.618 40.8158C159.642 40.8158 159.666 40.8393 159.678 40.8511C159.464 41.3931 159.239 41.9351 159.026 42.4772C159.061 42.5007 159.097 42.5243 159.133 42.5479C159.251 42.4536 159.37 42.3711 159.571 42.2297C159.358 43.4316 159.109 44.5509 159.204 45.7057C159.227 45.7057 159.263 45.7174 159.287 45.7292C159.334 45.5878 159.381 45.4582 159.417 45.3168C159.938 42.866 161.206 40.8865 163.184 39.3194C165.092 37.7994 167.177 36.6093 169.499 35.8552C169.629 35.8081 169.795 35.8552 169.937 35.8552C169.89 36.0202 169.854 36.1969 169.807 36.3619C169.795 36.4208 169.736 36.4561 169.724 36.5739C170.079 36.4915 170.423 36.3972 170.778 36.3147C173.1 35.8081 175.28 36.0555 177.211 37.5637C177.354 37.6698 177.496 37.7522 177.602 37.9172C176.903 38.1646 176.311 37.8347 175.671 37.8347C176.062 38.0586 176.453 38.2825 176.856 38.5063C176.844 38.5535 176.832 38.5888 176.809 38.6359C176.643 38.6595 176.477 38.7184 176.311 38.7184C175.126 38.6831 173.942 38.6242 172.757 38.577C172.461 38.577 172.165 38.577 171.88 38.577C171.88 38.6242 171.857 38.6713 171.857 38.7184C171.951 38.7773 172.034 38.8363 172.129 38.8952C172.769 39.2369 173.42 39.5668 174.06 39.9203C174.179 39.9792 174.262 40.1088 174.356 40.262C172.875 40.5094 171.406 40.262 169.925 40.2384C170.387 40.5919 170.992 40.6979 171.442 41.1693C169.748 41.4992 168.113 41.8291 166.383 42.159C166.549 42.3122 166.62 42.3711 166.703 42.4418C166.964 42.6775 166.928 42.8189 166.584 42.9013C166.348 42.9603 166.099 42.9603 165.862 43.0074C164.926 43.1841 164.002 43.3609 163.066 43.5376C163.007 43.5376 162.959 43.5965 162.853 43.6554C163.409 43.9029 164.025 43.8911 164.499 44.3742C163.682 44.7041 162.983 45.1519 162.379 45.7174C162.379 45.741 162.402 45.7763 162.414 45.7999C162.509 45.7763 162.604 45.7528 162.687 45.7174C164.369 45.034 166.099 44.5392 167.9 44.2446C169.546 43.9854 171.205 43.9147 172.864 44.0678C174.522 44.221 176.133 44.6098 177.674 45.2343C179.427 45.9531 181.18 46.6718 182.946 47.3906C183.1 47.4495 183.23 47.5438 183.372 47.6263C183.36 47.6616 183.348 47.7087 183.337 47.7441L181.275 47.1549C181.275 47.1549 181.251 47.1903 181.24 47.2139C181.322 47.2846 181.405 47.367 181.5 47.4259C182.614 48.1565 183.526 49.0873 184.32 50.1478C184.391 50.2421 184.45 50.3599 184.498 50.4659C184.652 50.7841 184.616 50.8783 184.261 50.9961C184.889 52.3865 185.718 53.7298 185.587 55.3676C184.391 54.3778 183.597 53.0464 182.649 51.7502C182.566 52.1037 182.519 52.363 182.436 52.6222C182.412 52.7047 182.341 52.7754 182.282 52.8578C182.199 52.7989 182.093 52.7518 182.045 52.6693C181.334 51.5617 180.635 50.4541 179.936 49.3583C179.853 49.2287 179.77 49.0991 179.64 48.9931C179.759 49.8768 180.185 50.7016 180.102 51.6796C179.297 51.1611 178.799 50.4306 178.159 49.8061L178.598 51.2672C178.598 51.2672 178.515 51.3261 178.479 51.3496C177.306 50.7958 176.323 49.971 175.363 49.0991C175.34 49.1462 175.304 49.1698 175.316 49.1934C175.351 49.7354 175.174 49.9003 174.688 49.6765C173.74 49.2287 172.816 48.7338 171.892 48.2507C171.691 48.1447 171.501 48.0269 171.24 47.8855C171.24 48.074 171.217 48.2036 171.217 48.3332C171.205 48.9577 170.932 49.1227 170.399 48.7928C169.724 48.3804 169.072 47.9208 168.409 47.4849C168.006 47.2256 167.603 46.9782 167.189 46.7308C167.165 46.7543 167.141 46.7779 167.118 46.7897C167.248 47.1314 167.39 47.4731 167.509 47.8148C167.58 48.0269 167.627 48.2625 167.663 48.4864C167.698 48.7338 167.592 48.8399 167.331 48.781C166.656 48.6278 165.98 48.4746 165.305 48.3097C164.784 48.18 164.262 48.0033 163.753 47.8619C163.682 47.8383 163.587 47.8501 163.433 47.8383C163.694 48.074 163.895 48.2507 164.097 48.4275C164.073 48.4746 164.061 48.5218 164.037 48.5689C163.208 48.4511 162.367 48.345 161.538 48.2272C161.526 48.2625 161.502 48.2979 161.49 48.3332C161.549 48.4275 161.597 48.5335 161.668 48.6278C163.706 51.2789 165.269 54.2129 166.667 57.2411C168.018 60.175 169.179 63.1914 170.174 66.2667C171.075 69.071 171.916 71.9107 172.698 74.7504C173.302 76.9302 173.811 79.1336 174.321 81.337C174.795 83.4461 175.245 85.567 175.648 87.6879C176.027 89.6792 176.335 91.6705 176.655 93.6736C176.726 94.1331 176.761 94.5927 176.809 95.0522C176.832 95.2761 176.903 95.3939 177.176 95.4057C178.728 95.5 180.268 95.6178 181.808 95.7356C182.01 95.7474 182.069 95.6767 182.093 95.4882C182.282 93.3908 182.46 91.3053 182.673 89.2079C182.815 87.8529 182.993 86.4979 183.194 85.1546C183.455 83.4343 183.763 81.7258 184.059 80.0173C184.32 78.5327 184.592 77.0598 184.9 75.5869C185.232 74.008 185.599 72.4291 185.967 70.862C186.358 69.2006 186.76 67.551 187.199 65.9014C187.661 64.1576 188.135 62.4255 188.644 60.6934C189.248 58.6668 189.853 56.6283 190.54 54.6253C191.618 51.4675 192.708 48.3097 193.904 45.1872C195.231 41.7584 196.653 38.3532 198.122 34.9833C199.792 31.1421 201.641 27.3715 203.595 23.6717C204.425 22.0928 205.278 20.5257 206.119 18.9586C206.142 18.9232 206.154 18.8761 206.202 18.7583C205.858 18.6994 205.55 18.5815 205.23 18.5933C204.496 18.6287 203.761 18.7112 203.027 18.7936C202.576 18.8408 202.126 18.935 201.676 18.9822C201.534 18.9939 201.38 18.9586 201.226 18.9468C201.202 18.9115 201.178 18.8761 201.167 18.8408L202.197 17.9453C202.197 17.9453 202.174 17.9099 202.174 17.8864C201.806 17.9924 201.427 18.0984 201.06 18.2045C199.638 18.5815 198.229 18.9586 196.807 19.3356C196.688 19.371 196.57 19.3592 196.44 19.371C195.978 19.4181 195.8 19.2532 195.93 18.8172C196.143 18.0867 196.428 17.3679 196.677 16.6374C196.712 16.5431 196.736 16.4606 196.807 16.2839C196.641 16.3664 196.546 16.4017 196.463 16.4606C195.053 17.3797 193.655 18.2988 192.246 19.206C191.997 19.3592 191.724 19.5006 191.44 19.5831C191.085 19.7009 190.824 19.5477 190.741 19.1825C190.67 18.829 190.646 18.4755 190.599 18.0631C190.149 18.3223 189.734 18.5815 189.308 18.8172C188.158 19.4299 187.009 20.0308 185.848 20.6082C185.647 20.7142 185.41 20.7614 185.185 20.7849C184.746 20.8321 184.58 20.6671 184.592 20.2194C184.592 20.0897 184.628 19.9601 184.652 19.748C183.182 21.1266 181.666 22.3285 179.853 23.2593C179.711 22.3167 180.233 21.6097 180.375 20.8085C180.292 20.9028 180.197 20.997 180.114 21.0913C179.391 21.869 178.681 22.6466 177.946 23.4007C177.851 23.495 177.685 23.5186 177.555 23.5775C177.52 23.4243 177.425 23.2593 177.46 23.1179C177.685 22.0928 177.946 21.0677 178.195 20.0426C178.23 19.913 178.278 19.7716 178.313 19.642C178.29 19.6302 178.266 19.6067 178.242 19.5949C178.159 19.7127 178.064 19.8187 177.993 19.9366C176.856 21.7158 175.719 23.5068 174.581 25.286C174.522 25.3802 174.392 25.4981 174.321 25.4863C174.238 25.4627 174.143 25.3331 174.108 25.2271C174.025 24.9914 173.977 24.744 173.918 24.4965C173.871 24.2962 173.835 24.0959 173.776 23.7896C172.401 25.7337 171.181 27.6897 169.487 29.2568C169.452 29.2568 169.404 29.2568 169.369 29.245C169.345 28.9269 169.286 28.6087 169.321 28.2906C169.475 26.7706 170.091 25.392 170.731 24.0252C170.944 23.5775 171.169 23.1415 171.383 22.7173C171.359 22.682 171.347 22.6466 171.335 22.6466C170.814 22.5288 170.731 22.3992 171.004 21.9397C171.359 21.3623 171.762 20.7967 172.2 20.2783C173.254 19.0529 174.451 17.9806 175.837 17.1205C175.873 17.0969 175.908 17.0733 175.932 17.0498C175.932 17.0144 175.908 16.9909 175.908 16.9555C175.565 17.0616 175.233 17.1676 174.889 17.2736C174.522 17.3915 174.167 17.5447 173.788 17.6389C173.432 17.7332 173.053 17.7685 172.698 17.8274C172.686 17.7921 172.674 17.7567 172.662 17.7214C172.792 17.6389 172.911 17.5329 173.053 17.474C174.795 16.7199 176.524 15.954 178.29 15.2352C179.652 14.6814 181.014 14.1394 182.401 13.6799C183.597 13.291 184.817 12.9729 186.038 12.7137C188.407 12.2306 190.8 12.101 193.205 12.3131C194.757 12.4545 196.297 12.6901 197.826 12.9729C199.662 13.3028 201.439 13.8802 203.181 14.5518C203.24 14.5754 203.299 14.5754 203.358 14.5872L203.406 14.5047C203.11 14.2808 202.825 14.0216 202.505 13.8331C202.031 13.5503 201.534 13.3146 201.06 13.0554C200.942 12.9847 200.859 12.8786 200.752 12.7844C200.847 12.6783 200.918 12.5369 201.036 12.4898C201.617 12.2777 202.197 12.0892 202.79 11.8889C202.884 11.8535 202.979 11.83 203.074 11.7946C203.074 11.7593 203.074 11.7357 203.074 11.7004C202.778 11.6179 202.482 11.5236 202.174 11.4765C200.788 11.229 199.39 10.9816 198.003 10.7342C197.778 10.6988 197.541 10.6517 197.328 10.5692C197.091 10.4867 197.032 10.31 197.222 10.1097C197.387 9.93294 197.577 9.77976 197.838 9.53232C195.302 9.03744 192.838 8.55435 190.291 8.04768C191.002 7.31715 191.902 7.10505 192.684 6.69266V6.58661C192.352 6.61018 192.032 6.64552 191.713 6.66909C189.971 6.77514 188.229 7.02257 186.476 6.84583C186.476 6.84583 186.452 6.84583 186.44 6.84583C186.298 6.78692 186.144 6.728 186.002 6.66909C186.097 6.5277 186.168 6.33917 186.298 6.26847C187.293 5.71468 188.312 5.17267 189.319 4.63066C189.45 4.55996 189.592 4.50105 189.722 4.43035C189.722 4.395 189.722 4.35965 189.722 4.3243C189.568 4.28896 189.402 4.21826 189.248 4.23004C187.85 4.27717 186.464 4.33609 185.066 4.38322C184.308 4.40678 183.538 4.40678 182.78 4.40678C182.72 4.40678 182.661 4.40678 182.614 4.37144C182.507 4.31252 182.424 4.24182 182.318 4.18291C182.377 4.10043 182.424 3.97082 182.507 3.92369C182.922 3.68803 183.337 3.47594 183.763 3.25206C183.917 3.16958 184.071 3.09889 184.213 2.99284C183.218 3.11067 182.27 3.54664 181.145 3.35811C181.275 3.16958 181.346 3.01641 181.465 2.92215C183.1 1.54355 184.971 0.695188 187.128 0.518445C189.071 0.353485 190.966 0.600925 192.814 1.20185C192.862 1.21363 192.921 1.21363 193.075 1.2372C192.956 1.11937 192.897 1.06046 192.838 0.989759C192.743 0.883713 192.601 0.777668 192.577 0.659839C192.542 0.447748 192.601 0.212091 192.613 0C192.779 0.0117828 192.956 0 193.111 0.0589142C195.172 0.718754 197.115 1.62603 198.975 2.72184C200.93 3.87656 202.742 5.23158 204.354 6.83405C206.036 8.50721 207.138 10.5339 207.837 12.7844C208.014 13.35 208.121 13.9391 208.275 14.5047C208.299 14.6225 208.346 14.7286 208.429 14.8346C208.595 13.079 208.228 11.3587 207.931 9.63837C207.967 9.62658 208.003 9.6148 208.038 9.60302C208.216 9.75619 208.405 9.90937 208.583 10.0743C208.607 10.0508 208.642 10.039 208.666 10.0154C208.536 9.10814 207.931 8.35404 207.801 7.43497C208.062 7.63528 208.311 7.84737 208.571 8.04768C208.607 8.02412 208.642 8.01233 208.678 7.98877C208.63 7.82381 208.607 7.64707 208.547 7.48211C208.228 6.70444 207.884 5.92677 207.552 5.1491C207.493 5.00771 207.458 4.86631 207.469 4.67779C207.801 4.86631 208.133 5.04306 208.453 5.23158C208.488 5.23158 208.512 5.20802 208.547 5.19623C208.524 5.05484 208.547 4.88988 208.476 4.76027C208.18 4.13578 207.86 3.52307 207.552 2.89858C207.481 2.7454 207.469 2.56866 207.434 2.41548C207.623 2.38013 207.825 2.28587 207.991 2.32122C208.69 2.45083 209.246 2.85145 209.78 3.27563C210.668 3.97082 211.403 4.79562 211.877 5.83251C212.35 6.85761 212.504 7.92985 212.422 9.04922C212.422 9.22597 212.445 9.40271 212.457 9.57945C212.504 9.60302 212.54 9.6148 212.587 9.63837C212.801 9.39093 213.002 9.14349 213.275 8.81357C212.967 10.8638 212.196 12.6666 211.355 14.4576C211.379 14.4811 211.403 14.4929 211.426 14.5165C211.497 14.4693 211.58 14.4222 211.64 14.3633C213.476 12.643 215.573 11.3704 218.013 10.7224C219.068 10.4514 220.158 10.31 221.248 10.1922C223.12 9.98007 225.003 10.0154 226.887 10.1922C228.7 10.3689 230.477 10.6988 232.218 11.2055C232.491 11.288 232.55 11.4529 232.384 11.6297C232.242 11.8064 232.029 11.9242 231.827 12.0538C231.733 12.1128 231.602 12.101 231.472 12.1952C231.65 12.2542 231.816 12.3249 231.993 12.3838C234.149 13.079 236.104 14.1158 237.68 15.7654C238.865 17.0026 239.623 18.4755 240.049 20.1251C240.073 20.2311 240.038 20.349 240.026 20.4668C239.907 20.4432 239.741 20.455 239.67 20.3725C239.102 19.8423 238.557 19.3003 238.012 18.7701C237.929 18.6876 237.858 18.6051 237.775 18.5226C237.751 18.5344 237.727 18.558 237.704 18.5698C237.81 18.7465 237.929 18.9232 238.023 19.1118C238.225 19.5006 238.45 19.8777 238.616 20.2783C238.734 20.5493 238.616 20.6671 238.331 20.5611C238.071 20.455 237.798 20.3254 237.573 20.1604C236.27 19.206 234.991 18.2398 233.687 17.2854C233.391 17.0733 233.083 16.8848 232.763 16.6963C232.657 16.6374 232.538 16.6138 232.42 16.5667C232.396 16.5902 232.372 16.6138 232.349 16.6374C232.491 16.8848 232.657 17.1323 232.787 17.3797C233.261 18.3223 233.735 19.2649 234.185 20.2076C234.232 20.3018 234.185 20.4315 234.185 20.5493C234.055 20.5493 233.901 20.5728 233.806 20.5139C233.107 20.078 232.384 19.6538 231.721 19.1707C230.737 18.4402 229.79 17.6625 228.818 16.9084C228.771 16.873 228.712 16.8377 228.629 16.8259C229.02 17.6271 229.647 18.3105 229.825 19.3239C227.432 18.3223 225.134 17.3561 222.752 16.3546C222.823 16.6963 222.895 16.9319 222.93 17.1794C222.966 17.4504 222.812 17.5682 222.575 17.474C222.124 17.2972 221.686 17.0733 221.248 16.8848C219.956 16.3428 218.665 15.8008 217.374 15.2706C217.314 15.247 217.243 15.2588 217.101 15.247C217.421 15.6241 217.694 15.9422 217.954 16.2721C218.144 16.5195 218.321 16.767 218.464 17.0498C218.641 17.3915 218.523 17.5329 218.144 17.4622C217.255 17.2736 216.367 17.2383 215.466 17.3679C215.383 17.3679 215.3 17.3915 215.229 17.4857C215.49 17.5211 215.762 17.58 216.035 17.6036C219.684 17.9571 223.143 18.9822 226.342 20.7614C228.806 22.1282 230.963 23.8838 232.799 26.0283C234.114 27.5719 235.405 29.139 236.448 30.8828C236.685 31.2834 236.851 31.7312 237.028 32.1672C237.076 32.2614 237.088 32.3793 237.088 32.4853C237.088 32.7799 237.005 32.8388 236.685 32.7681C236.803 33.2158 236.945 33.64 237.028 34.076C237.194 34.9361 237.336 35.8081 237.478 36.68C237.514 36.8921 237.502 37.1277 237.478 37.3398C237.419 37.8347 237.301 37.9054 236.768 37.7404C236.827 38.1646 236.898 38.5535 236.945 38.9423C237.123 40.5919 237.159 42.2179 236.377 43.7497C236.258 43.9854 236.092 44.1857 235.95 44.4095C235.915 44.4095 235.879 44.4095 235.832 44.4095C235.725 44.1621 235.559 43.9382 235.524 43.679C235.322 42.5596 235.156 41.4285 234.979 40.2973C234.943 40.0499 234.919 39.8024 234.884 39.4725C234.777 39.5786 234.718 39.6375 234.659 39.6964C234.386 39.9792 234.126 40.2855 233.83 40.5448C233.604 40.7451 233.474 40.6626 233.415 40.368C233.142 39.0012 232.858 37.6344 232.586 36.2676C232.586 36.2322 232.538 36.1969 232.479 36.1026C232.242 36.5975 232.289 37.1631 231.792 37.5755C231.65 37.2927 231.46 37.057 231.401 36.786C231.176 35.7845 230.986 34.7594 230.785 33.7461C230.773 33.6754 230.749 33.6047 230.726 33.534C230.69 33.534 230.666 33.534 230.631 33.5222C230.607 33.6282 230.572 33.7461 230.548 33.8521C230.441 34.3823 230.335 34.9126 230.216 35.431C230.181 35.5724 230.05 35.6785 229.967 35.8081C229.861 35.7138 229.707 35.6313 229.647 35.5017C229.28 34.8065 228.901 34.1231 228.605 33.4044C228.238 32.4853 227.953 31.5427 227.633 30.6118C227.633 30.6 227.598 30.5883 227.55 30.5411C227.503 30.6472 227.456 30.7297 227.42 30.8239C227.242 31.2952 226.875 31.4248 226.532 31.0596C226.093 30.5883 225.679 30.0698 225.347 29.5278C224.672 28.432 224.056 27.3008 223.416 26.1815C223.38 26.1226 223.321 26.0637 223.262 25.9812C223.12 26.2286 222.989 26.4407 222.847 26.6528C222.444 27.2302 221.959 27.2537 221.603 26.6528C221.26 26.0637 220.999 25.4392 220.691 24.8265C220.158 23.7542 219.613 22.682 219.068 21.6097C219.032 21.539 218.973 21.4801 218.866 21.3387C218.795 21.8807 218.748 22.3285 218.653 22.7762C218.582 23.1651 218.487 23.5539 218.345 23.9192C218.132 24.473 217.954 24.5319 217.516 24.1313C216.841 23.5303 216.189 22.8941 215.561 22.246C214.898 21.5744 214.27 20.8792 213.63 20.2076C213.559 20.1369 213.488 20.078 213.346 20.0544C213.429 20.2429 213.535 20.4315 213.583 20.62C213.642 20.8556 213.665 21.1031 213.713 21.3387C213.488 21.2445 213.239 21.1856 213.061 21.0442C212.327 20.4904 211.604 19.9012 210.87 19.3356C210.763 19.2532 210.644 19.206 210.538 19.1353L210.467 19.1943C210.514 19.2767 210.562 19.371 210.621 19.4417C212.682 21.9043 214.163 24.6851 215.194 27.7132C215.834 29.5985 216.272 31.5309 216.568 33.5104C216.888 35.6195 217.054 37.7287 216.947 39.8614C216.947 40.0852 216.9 40.2973 216.864 40.5094C216.852 40.5919 216.769 40.6626 216.722 40.7451C216.639 40.6979 216.521 40.6626 216.485 40.5919C216.307 40.2031 216.13 39.8142 215.999 39.4018C215.857 38.9659 215.774 38.5063 215.668 38.0586C215.644 37.9761 215.597 37.9054 215.526 37.764C215.478 37.9054 215.443 37.9761 215.443 38.0468C215.443 40.8865 214.696 43.573 213.594 46.1534C213.251 46.9664 212.718 47.697 212.256 48.4628C212.161 48.616 212.019 48.7574 211.877 48.8752C211.746 48.9695 211.497 49.1109 211.426 49.052C211.284 48.9577 211.154 48.7338 211.166 48.5689C211.189 47.6498 211.237 46.719 211.32 45.7999C211.379 45.1872 211.509 44.5863 211.628 43.9029C211.379 44.0325 211.213 44.1621 211.012 44.2328C210.834 44.2917 210.644 44.2799 210.455 44.3035C210.443 44.115 210.384 43.9264 210.408 43.7379C210.573 42.5361 210.787 41.346 210.941 40.1441C211.071 39.1662 211.166 38.1764 211.272 37.1867C211.272 37.1042 211.272 37.0217 211.213 36.9274C210.798 37.7522 210.372 38.5653 209.957 39.39C209.91 39.3783 209.874 39.3665 209.827 39.3547C209.827 38.0822 210.088 36.8332 210.289 35.5724C210.479 34.3234 210.716 33.0744 210.893 31.8137C210.384 32.5796 210.088 33.4751 209.448 34.1349C209.412 34.1349 209.389 34.1113 209.353 34.1113C209.353 33.8285 209.329 33.5458 209.353 33.2747C209.531 31.8726 209.72 30.4822 209.898 29.0918C209.945 28.7266 210.005 28.3495 210.064 27.9843C210.099 27.7957 210.017 27.7604 209.851 27.7486C209.199 27.6897 208.962 27.4422 208.927 26.7824C208.879 25.9223 208.891 25.0621 208.82 24.202C208.725 23.1651 208.547 22.14 208.405 21.1031C208.393 20.997 208.334 20.9028 208.275 20.7378C208.168 20.9145 208.109 21.0088 208.062 21.1149C206.131 24.9325 204.354 28.8208 202.754 32.7917C201.641 35.5253 200.551 38.2825 199.532 41.0514C198.525 43.8086 197.601 46.5894 196.688 49.3701C195.954 51.6206 195.29 53.8829 194.639 56.1453C194.106 58.0069 193.62 59.8804 193.146 61.7421C192.696 63.486 192.281 65.2416 191.878 66.9973C191.57 68.3523 191.31 69.7073 191.037 71.0623C190.777 72.382 190.516 73.6899 190.279 75.0096C190.042 76.3293 189.829 77.6607 189.627 78.9804C189.39 80.524 189.154 82.0675 188.952 83.6111C188.786 84.8247 188.656 86.0383 188.537 87.252C188.407 88.5363 188.289 89.8206 188.194 91.0932C188.087 92.4011 188.016 93.709 187.921 95.0169C187.898 95.3232 187.898 95.6296 187.85 95.9359C187.803 96.2305 187.898 96.3601 188.206 96.3837C189.118 96.4544 190.042 96.5251 190.954 96.6193C192.85 96.8314 194.734 97.0435 196.617 97.2792C197.826 97.4323 199.01 97.6916 200.124 98.2218C200.397 98.3514 200.693 98.4928 200.906 98.7167C201.238 99.0584 201.629 99.1762 202.067 99.1998C203.595 99.2705 205.124 99.3529 206.64 99.4001C209.27 99.4708 211.888 99.4708 214.519 99.5768C215.857 99.6357 217.208 99.7889 218.535 100.036C220.513 100.402 222.409 101.014 224.091 102.169C224.411 102.393 224.66 102.711 224.92 103.006C225.015 103.112 225.051 103.277 225.122 103.465C224.861 103.512 224.648 103.559 224.435 103.583C223.013 103.689 221.591 103.807 220.158 103.889C213.5 104.266 206.83 104.302 200.16 104.325C198.43 104.325 196.7 104.431 194.982 104.537C193.43 104.643 191.89 104.926 190.374 105.28C189.118 105.562 187.85 105.81 186.571 105.998C184.829 106.258 183.088 106.482 181.346 106.694C180.458 106.8 179.557 106.847 178.669 106.929C178.515 106.941 178.373 107 178.23 107.047H166.395L166.276 107Z" fill="#019BBD"/>
<path d="M152.107 42.3946C151.906 24.5907 145.437 23.1061 143.791 23.0589C143.554 23.0589 143.483 23.0472 143.483 23.0472C145.106 22.3048 146.8 22.0456 148.494 22.1399C153.873 22.458 158.825 27.1122 161.597 37.9289C161.739 37.5047 161.917 37.0923 162.13 36.7035C162.26 36.4796 162.414 36.2911 162.58 36.0908C162.663 35.9847 162.746 35.8787 162.829 35.7726C162.865 35.7373 162.888 35.6902 162.924 35.6548C163.232 35.3131 163.623 35.0185 164.002 34.7593C164.701 34.2762 165.507 33.9581 166.312 33.6871C168.539 32.9447 170.968 32.7091 173.361 32.6384C168.504 16.6962 156.846 12.1598 148.636 11.7356C143.696 11.4175 140.059 12.4662 140.059 12.4662C140.023 22.623 139.999 32.7798 139.964 42.9484C143.802 41.558 148.044 42.1943 152.119 42.3946H152.107Z" fill="white"/>
<path d="M169.452 50.0652C168.409 49.7 167.367 49.3465 166.289 49.099C166.075 49.0519 165.85 49.0048 165.625 48.9576C165.483 48.9341 165.329 48.8987 165.187 48.8752C164.867 48.828 164.891 48.828 165.27 48.8752C164.831 48.7102 164.156 48.8045 163.694 48.8163C163.587 48.8163 163.481 48.8163 163.374 48.7927C163.73 52.6103 163.907 56.8639 163.848 61.636C163.576 86.4389 157.711 93.7324 154.785 93.7442C151.693 93.7324 151.811 88.8308 151.811 88.4891C151.811 88.4891 151.894 75.8343 152.001 60.3281C150.437 61.3296 148.909 62.3665 147.321 63.3445C144.987 64.782 142.499 65.9721 139.869 66.7497C139.834 76.989 139.81 87.2401 139.774 97.4794C145.046 97.4794 150.307 97.4794 155.579 97.503C155.579 97.5383 174.7 97.4676 175.589 51.8444C173.468 51.5145 171.466 50.7722 169.452 50.0652Z" fill="white"/>
<path d="M197.588 46.4951C197.837 46.3302 197.825 45.7175 198.062 45.5407C198.998 44.7984 199.851 43.9736 200.716 43.137C201.782 42.1001 202.896 41.1221 204.116 40.262C204.294 40.1324 204.507 40.0499 204.721 39.991C200.029 35.3132 198.548 32.9566 198.596 30.5176C198.631 28.2199 199.567 27.0652 201.155 27.4187C203.121 27.8665 206.095 30.5529 208.654 35.2072C210.04 37.764 212.196 39.4372 214.518 39.991C218.333 40.8629 222.349 38.5417 222.491 30.659C222.515 29.4218 222.468 28.055 222.266 26.5468C215.904 24.4494 209.495 22.5642 203.026 20.9146C203.026 20.9146 202.647 20.7143 202.043 20.5611C199.863 19.9719 193.845 19.9366 193.632 32.6974C193.596 34.8772 193.88 40.5684 197.328 46.0474L197.6 46.4833L197.588 46.4951Z" fill="white"/>
<path d="M188.692 32.3558C188.775 27.3245 188.858 22.2933 188.94 17.262C185.493 16.555 182.034 15.9069 178.562 15.3296L178.313 33.0746C181.773 32.8742 185.232 32.6268 188.692 32.3676V32.3558Z" fill="white"/>
</g>
<defs>
<clipPath id="clip0_60_1659">
<rect width="260" height="107" fill="white"/>
</clipPath>
</defs>
</svg>
