<svg width="457" height="190" viewBox="0 0 457 190" fill="none" xmlns="http://www.w3.org/2000/svg">
<g clip-path="url(#clip0_131_2)">
<path d="M24.4469 62.2529C34.7963 57.3828 57.6401 53.4075 58.4314 95.6573C58.4314 95.6989 57.6609 128.104 33.5885 131.726C13.3269 134.535 5.68459 124.483 5.64295 106.542C5.64295 103.4 5.87201 99.7782 6.37178 96.0319C6.37178 96.0319 5.24729 102.858 5.28894 111.017C5.33059 120.154 6.74661 131.08 13.1812 137.532C21.4482 146.003 22.9476 159.968 23.01 167.523C23.0517 171.041 22.8018 173.226 22.8018 173.226C15.2219 173.289 7.66286 173.351 0.0829793 173.413C0.0621555 140.28 0.0413317 107.167 0.0205078 74.0329C6.3926 70.8694 12.8063 67.8307 19.2617 64.9378C19.2617 64.9378 21.2816 63.5849 24.4677 62.2113L24.4469 62.2529ZM39.5233 107.937C39.44 101.859 37.7741 95.4075 36.1915 93.243C33.0263 88.9972 27.4455 80.9843 15.097 85.7088C14.0766 86.0835 12.9313 86.5205 11.786 87.1033C11.786 86.9992 19.6157 92.7227 19.7407 104.045C19.8448 114.41 22.9059 124.774 31.2563 123.317C31.7769 123.213 32.4224 123.109 33.0679 122.839C38.0032 120.882 39.6066 114.493 39.5025 107.937H39.5233Z" fill="#231F20"/>
<path d="M114.76 32.574C115.551 79.2153 116.343 125.856 117.134 172.498C110.929 172.519 104.702 172.56 98.4968 172.581C98.1844 155.369 97.872 138.157 97.5597 120.966C90.542 121.715 83.5452 122.506 76.5693 123.359C80.38 136.2 84.524 145.753 85.0237 172.664C78.0269 172.706 71.0093 172.747 64.0125 172.789C64.0125 172.789 62.7422 101.568 62.5132 89.3927C62.4507 77.7167 59.8269 47.1221 114.76 32.5532V32.574ZM97.4556 115.554C97.0391 92.2648 96.6018 68.9754 96.1853 45.7068C96.1853 45.7068 95.7897 45.8109 95.1233 45.9774C90.3338 47.0597 70.0097 55.0725 70.6136 86.3956C70.8843 101.027 73.175 111.059 75.1532 118.385C82.5665 117.365 90.0006 116.428 97.4556 115.575V115.554Z" fill="#231F20"/>
<path d="M183.145 173.497C175.878 173.497 168.61 173.497 161.322 173.518C161.322 173.518 157.386 141.258 145.517 129.27C137.833 121.507 133.668 110.934 131.419 102.942C128.92 96.6771 127.733 88.8516 127.587 79.7356C127.525 75.3649 127.712 70.7653 128.17 65.7495C128.17 65.7495 127.108 74.8654 127.296 86.0627C127.504 98.8 129.211 114.305 135.875 124.046C144.579 136.95 146.162 155.702 146.287 165.567C146.349 169.834 146.12 172.56 146.12 172.56C138.541 172.581 130.961 172.602 123.381 172.643C122.61 125.919 121.84 79.1945 121.069 32.4908C127.879 31.0339 134.709 29.7227 141.581 28.5572C141.581 28.5572 143.726 27.5998 147.078 27.0587C158.24 25.019 182 28.4115 182.375 78.8406C182.375 79.694 181.188 118.177 155.096 119.384C152.305 119.529 149.765 119.301 147.495 118.655C152.493 123.609 159.468 127.938 167.923 134.411C182.541 145.67 183.145 173.518 183.145 173.476V173.497ZM137.499 54.5731C136.292 54.7604 135.084 54.9269 133.897 55.3223C133.897 55.2807 142.226 65.4581 142.435 80.4432C142.643 94.3669 145.641 108.624 154.158 108.082C160.822 107.645 162.863 99.6325 162.759 90.1211C162.675 82.4204 161.114 74.241 159.323 70.8486C156.158 64.4383 150.348 52.6375 137.499 54.5731Z" fill="#231F20"/>
<path d="M240.869 19.9199C240.765 70.7029 240.64 121.465 240.536 172.248C234.31 172.248 228.104 172.248 221.878 172.248C221.857 152.871 221.836 133.495 221.815 114.118C214.735 114.16 207.655 114.243 200.575 114.41C204.261 129.894 208.301 141.216 208.405 172.248C201.387 172.248 194.39 172.248 187.373 172.269C187.373 172.269 186.748 86.4373 186.623 71.7643C186.54 57.6117 184.52 20.0032 240.869 19.9199ZM221.815 108.02C221.774 81.796 221.753 55.5929 221.711 29.3689C221.711 29.3689 221.295 29.3689 220.628 29.3689C215.735 29.2856 194.703 32.5324 194.953 69.9328C195.057 87.2906 197.285 99.5285 199.201 108.374C206.739 108.187 214.277 108.062 221.815 108.02Z" fill="#231F20"/>
<path d="M261.256 21.0232C280.164 22.0014 309.484 35.4256 308.692 90.3294C307.526 172.456 273.479 172.54 273.479 172.477C264.213 172.477 254.967 172.456 245.7 172.435C245.867 122.381 246.013 72.3473 246.179 22.2928C246.179 22.2928 252.572 20.4404 261.256 21.0024V21.0232ZM288.014 109.165C288.556 59.4642 275.645 40.2749 261.006 39.4008C258.028 39.2343 255.05 39.6922 252.197 41.0034C252.197 41.0034 252.343 41.0034 252.739 41.0242C255.716 41.1074 267.628 43.8547 267.378 77.6753C267.107 116.324 266.836 156.597 266.836 156.597C266.836 157.201 266.649 165.859 272.063 165.879C277.227 165.879 287.535 152.976 287.993 109.165H288.014Z" fill="#231F20"/>
<path d="M329.808 172.643C323.811 172.622 317.814 172.602 311.816 172.581C312.483 124.171 313.17 75.7394 313.836 27.3291C319.938 28.3489 326.018 29.4936 332.078 30.7424C331.328 78.0496 330.558 125.336 329.808 172.643Z" fill="#231F20"/>
<path d="M391.051 54.4274C390.801 68.3303 383.762 72.4512 377.036 70.9111C372.955 69.9329 369.165 66.9775 366.728 62.4611C362.251 54.2401 357.004 49.4948 353.547 48.7039C350.756 48.0587 349.132 50.1192 349.049 54.1777C348.945 59.3184 352.631 64.2094 365.146 76.0934C380.264 90.9953 401.837 117.407 401.442 141.196C401.421 142.819 401.379 144.63 401.088 146.232C397.089 172.248 378.806 173.268 365.999 173.164C350.402 173.122 345.217 166.899 339.574 156.43C336.888 151.498 334.389 141.216 334.576 130.664C334.826 115.346 342.802 100.09 358.045 102.317C365.062 103.316 365.979 109.893 365.999 109.893C360.71 109.956 351.027 123.838 350.694 143.027C350.486 154.62 354.442 163.34 366.583 163.923C381.263 164.152 382.138 144.734 382.138 144.401C382.242 117.531 364.188 101.506 351.402 87.6237C340.969 76.4264 340.24 62.6901 340.324 58.0488C340.699 35.5087 351.277 35.5711 355.109 36.6118C356.171 36.8823 356.837 37.2362 356.837 37.2362C368.186 40.1499 379.473 43.48 390.655 47.1846C391.009 49.8486 391.092 52.2421 391.051 54.4482V54.4274Z" fill="#231F20"/>
<path d="M456.959 139.697C456.959 150.936 456.959 162.195 456.938 173.434C446.026 173.33 435.094 173.247 424.182 173.164C418.143 173.122 412.125 173.08 406.086 173.039C406.752 133.016 407.419 92.9933 408.064 52.9705C424.64 59.1518 440.987 66.2281 457 74.1994C457 85.4383 457 96.6979 456.979 107.937C456.979 108.103 450.024 84.9179 443.756 77.1964C441.611 74.5948 438.446 72.8049 435.406 71.5562C431.324 69.8704 427.347 69.3709 425.556 69.1627C425.327 86.2499 425.098 103.337 424.89 120.404C428.805 120.841 435.323 119.446 436.093 106.022C435.989 115.97 435.885 125.898 435.802 135.847C435.802 133.828 435.01 125.232 424.848 123.276C424.661 136.825 424.494 150.374 424.307 163.902C426.139 164.589 430.221 165.775 434.427 165.921C437.592 166.025 440.758 165.567 443.132 163.985C449.774 159.344 456.979 139.51 456.959 139.676V139.697ZM435.781 136.304C435.781 136.159 435.781 136.013 435.781 135.867C435.781 136.159 435.781 136.304 435.781 136.304Z" fill="#231F20"/>
<path d="M292.263 189.273C292.138 189.21 292.013 189.106 291.867 189.085C288.14 188.336 284.35 188.274 280.539 188.149C276.499 188.003 272.48 187.42 268.67 186.005C267.733 185.651 266.858 185.11 266.067 184.507C265.192 183.82 265.213 182.925 266.129 182.259C267.004 181.634 267.982 181.156 268.94 180.656C269.294 180.469 269.711 180.365 270.086 180.261C270.773 180.053 271.335 179.72 271.876 179.241C274.105 177.201 276.708 175.953 279.748 175.682C281.33 175.536 282.705 174.85 283.975 173.871C285.183 172.956 286.391 172.04 287.64 171.207C288.827 170.416 290.243 170.187 291.638 170.021C294.845 169.646 298.052 169.313 301.259 168.96C301.55 168.918 301.842 168.918 302.133 168.939C302.55 168.939 302.654 168.751 302.612 168.356C302.321 165.567 302.092 162.778 301.779 160.01C301.509 157.554 301.155 155.119 300.801 152.663C300.447 150.249 300.072 147.835 299.676 145.42C299.322 143.402 298.947 141.362 298.531 139.364C298.052 137.054 297.552 134.723 297.011 132.433C296.428 129.957 295.866 127.48 295.158 125.045C294.116 121.382 293.054 117.698 291.847 114.076C290.555 110.247 289.16 106.48 287.682 102.713C285.933 98.238 283.871 93.909 281.58 89.7048C281.31 89.1845 281.018 88.685 280.706 88.1855C280.602 88.019 280.393 87.9357 280.227 87.8109C280.123 87.9774 279.935 88.1439 279.914 88.3312C279.685 90.0378 279.477 91.7445 279.29 93.4719C279.227 94.1379 279.227 94.7831 279.186 95.4491C279.165 95.9902 278.873 96.3649 278.353 96.4065C277.874 96.4481 277.853 96.6771 277.915 97.0517C278.186 98.9873 278.457 100.944 278.707 102.879C278.748 103.212 278.707 103.566 278.707 103.92C278.644 103.941 278.603 103.982 278.54 104.003C278.04 103.129 277.541 102.276 277.041 101.402C276.999 101.402 276.937 101.402 276.895 101.422C277.291 104.315 277.999 107.187 278.165 110.101C278.103 110.122 278.04 110.143 277.978 110.164C277.52 109.269 277.062 108.353 276.603 107.458C276.541 107.458 276.499 107.5 276.437 107.5C276.479 108.062 276.52 108.644 276.603 109.206C276.812 110.788 277.02 112.37 277.228 113.952C277.291 114.472 277.416 114.992 277.478 115.513C277.499 115.721 277.416 115.95 277.395 116.158C277.187 116.116 276.957 116.095 276.749 116.033C276.541 115.97 276.354 115.846 276.062 115.679C276.208 116.616 276.374 117.406 276.458 118.197C276.562 119.176 276.583 120.175 276.603 121.153C276.603 121.382 276.416 121.59 276.312 121.819C276.083 121.694 275.771 121.631 275.646 121.444C275.021 120.508 274.334 119.592 273.876 118.593C272.501 115.596 271.752 112.432 271.543 109.144C271.543 108.977 271.502 108.811 271.481 108.644C271.439 108.644 271.377 108.644 271.335 108.644C271.189 109.227 271.064 109.81 270.856 110.372C270.669 110.913 270.419 111.454 270.148 112.078C269.19 110.83 270.148 102.317 271.252 98.4461C272.522 94.013 274.5 89.9546 277.395 86.3332C275.937 86.8743 275.063 88.1855 273.73 88.8931C273.667 88.8723 273.605 88.8307 273.542 88.8099C273.688 88.3312 273.813 87.8733 273.959 87.3946C273.938 87.3738 273.917 87.353 273.876 87.3114C273.73 87.457 273.563 87.5819 273.417 87.7484C272.106 89.1012 270.794 90.4541 269.482 91.8069C269.336 91.9526 269.149 92.0775 268.982 92.2232C268.586 92.6186 268.274 92.4105 268.149 92.015C267.92 91.2241 267.774 90.3916 267.587 89.5799C267.545 89.3926 267.545 89.2053 267.524 88.8515C267.316 89.0804 267.212 89.1637 267.149 89.2886C266.254 91.1201 265.338 92.9516 264.442 94.7623C264.359 94.9288 264.276 95.0745 264.172 95.2202C263.734 95.8237 263.276 95.8446 262.797 95.2618C262.589 95.012 262.443 94.7207 262.235 94.3877C262.11 94.5542 262.027 94.6374 261.964 94.7415C260.965 96.4065 259.965 98.0715 258.966 99.7365C258.903 99.8614 258.82 99.9655 258.737 100.07C258.049 100.881 257.654 100.84 257.112 99.799C256.363 102.026 255.676 104.211 254.384 106.084C254.301 106.084 254.218 106.084 254.135 106.084C253.926 105.231 253.697 104.378 253.489 103.524H253.364C253.218 104.295 253.114 105.106 252.927 105.876C252.76 106.626 252.677 107.437 252.011 108.228C251.761 107.604 251.552 107.104 251.344 106.626C251.282 106.626 251.24 106.605 251.178 106.584C250.803 108.311 250.449 110.039 250.053 111.829C249.283 111.725 249.074 110.892 248.429 110.538C248.096 112.474 248.179 114.472 247.242 116.407C245.451 113.868 245.888 111.184 246.18 108.499C245.389 108.353 245.305 108.332 245.409 107.437C245.597 105.918 245.93 104.419 246.201 102.921C246.201 102.817 246.263 102.692 246.305 102.546C245.722 102.505 245.743 102.088 245.909 101.755C246.346 100.84 246.763 99.8822 247.346 99.0497C249.762 95.574 252.427 92.3064 255.925 89.8297C259.465 87.3322 263.401 85.7088 267.649 84.8971C268.815 84.6681 270.002 84.5641 271.168 84.3768C271.293 84.3768 271.418 84.3143 271.585 84.1478C271.356 84.0854 271.106 83.9813 270.877 84.0021C270.023 84.0438 269.169 84.127 268.316 84.1895C268.17 84.1895 268.024 84.1895 267.878 84.1686C267.878 84.0021 267.878 83.8148 267.941 83.69C268.316 83.128 268.732 82.5869 269.149 82.0457C269.232 81.9209 269.315 81.8168 269.315 81.5671C268.836 81.7544 268.357 81.9001 267.878 82.1082C266.4 82.7534 264.942 83.4194 263.464 84.0646C263.235 84.1686 262.922 84.127 262.672 84.1686C262.672 83.8981 262.693 83.6067 262.714 83.3361C262.714 83.2737 262.756 83.1904 262.839 82.9199C259.944 84.0021 257.279 85.2301 254.468 86.4164C254.572 85.2509 255.384 84.5016 255.696 83.4818C255.405 83.7108 255.113 83.9397 254.822 84.1478C253.26 85.3133 251.698 86.458 250.136 87.6027C249.907 87.7692 249.595 87.8525 249.262 87.9149C249.532 86.125 250.657 84.7722 251.344 83.1904C249.949 83.7524 248.845 84.7306 247.679 85.5839C246.513 86.4372 245.472 87.4779 243.993 88.019C243.993 87.02 244.722 86.4372 244.951 85.6255C244.097 86.354 243.473 87.3322 242.452 87.8317C242.39 87.79 242.307 87.7692 242.244 87.7276C242.39 87.2073 242.515 86.687 242.702 86.1875C244.118 82.2747 247.138 80.0269 250.844 78.5492C251.344 78.3411 251.865 78.1954 252.385 77.9456C251.906 77.7167 251.365 77.6335 251.344 76.8634C252.156 76.6553 252.968 76.4055 253.822 76.2182C257.237 75.4689 260.673 75.3024 264.151 75.5106C268.607 75.7811 272.543 77.3421 275.854 80.4015C275.958 80.5056 276.083 80.5889 276.27 80.6305C275.417 78.5492 274.5 76.4888 274.146 74.2618C274.188 74.2202 274.25 74.1786 274.292 74.1369C274.459 74.4283 274.604 74.7197 274.771 75.0111C274.854 74.9486 274.958 74.8862 275.042 74.8446C275.063 74.6156 275.104 74.3659 275.104 74.1369C274.938 70.6612 276.583 68.2469 279.477 66.5403C279.769 66.3738 280.123 66.2905 280.456 66.2073C280.602 66.1657 280.852 66.2073 280.914 66.3322C280.997 66.4362 280.956 66.6652 280.914 66.8109C280.581 67.5185 280.206 68.1845 279.873 68.8921C279.769 69.1003 279.748 69.35 279.665 69.5789C279.706 69.6206 279.748 69.6414 279.79 69.683C280.144 69.4957 280.498 69.3084 280.872 69.1003L281.018 69.1627C280.518 70.3906 279.998 71.6394 279.498 72.8674C279.56 72.909 279.623 72.9506 279.706 72.9922C279.998 72.7841 280.268 72.576 280.56 72.3678C280.602 72.3678 280.643 72.4095 280.664 72.4303C280.289 73.3877 279.894 74.3451 279.519 75.3024C279.581 75.3441 279.644 75.3857 279.706 75.4273C279.914 75.2608 280.123 75.1151 280.477 74.8654C280.102 76.9883 279.665 78.9655 279.831 81.0051C279.873 81.0051 279.935 81.0259 279.977 81.0467C280.06 80.797 280.144 80.568 280.206 80.3183C281.122 75.9893 283.35 72.4927 286.828 69.7246C290.181 67.0398 293.846 64.9377 297.927 63.6057C298.156 63.5225 298.448 63.6057 298.698 63.6057C298.614 63.8971 298.552 64.2093 298.469 64.5007C298.448 64.6047 298.344 64.6672 298.323 64.8753C298.947 64.7296 299.551 64.5631 300.176 64.4174C304.258 63.5225 308.089 63.9595 311.483 66.6235C311.733 66.8109 311.983 66.9566 312.171 67.2479C310.942 67.685 309.901 67.1022 308.776 67.1022C309.463 67.4977 310.151 67.8931 310.859 68.2886C310.838 68.3718 310.817 68.4343 310.775 68.5175C310.484 68.5591 310.192 68.6632 309.901 68.6632C307.818 68.6008 305.736 68.4967 303.654 68.4134C303.133 68.4134 302.612 68.4134 302.113 68.4134C302.113 68.4967 302.071 68.5799 302.071 68.6632C302.238 68.7673 302.383 68.8713 302.55 68.9754C303.674 69.5789 304.82 70.1617 305.944 70.7861C306.152 70.8901 306.298 71.1191 306.465 71.3896C303.862 71.8267 301.28 71.3897 298.677 71.348C299.489 71.9724 300.551 72.1597 301.342 72.9922C298.364 73.575 295.491 74.1577 292.45 74.7405C292.742 75.0111 292.867 75.1151 293.013 75.24C293.471 75.6563 293.408 75.906 292.804 76.0517C292.388 76.1558 291.951 76.1558 291.534 76.239C289.889 76.5512 288.265 76.8634 286.62 77.1756C286.516 77.1756 286.432 77.2796 286.245 77.3837C287.224 77.8208 288.306 77.8 289.139 78.6533C287.703 79.236 286.474 80.0269 285.412 81.0259C285.412 81.0675 285.454 81.13 285.474 81.1716C285.641 81.13 285.808 81.0884 285.953 81.0259C288.91 79.8188 291.951 78.9447 295.116 78.4243C298.01 77.9665 300.926 77.8416 303.841 78.1122C306.756 78.3827 309.588 79.0695 312.296 80.1726C315.377 81.4422 318.459 82.7118 321.562 83.9813C321.833 84.0854 322.062 84.2519 322.312 84.3976C322.291 84.46 322.27 84.5433 322.249 84.6057L318.626 83.5651C318.626 83.5651 318.584 83.6275 318.563 83.6691C318.709 83.794 318.855 83.9397 319.022 84.0438C320.979 85.3342 322.583 86.9784 323.978 88.8515C324.103 89.018 324.207 89.2261 324.29 89.4134C324.561 89.9754 324.498 90.1419 323.874 90.35C324.977 92.8059 326.435 95.1786 326.206 98.0715C324.103 96.3233 322.707 93.9714 321.042 91.682C320.896 92.3064 320.812 92.7643 320.667 93.2222C320.625 93.3678 320.5 93.4927 320.396 93.6384C320.25 93.5344 320.063 93.4511 319.98 93.3054C318.73 91.349 317.502 89.3926 316.273 87.457C316.127 87.2281 315.981 86.9992 315.752 86.8119C315.961 88.3728 316.71 89.8297 316.564 91.5571C315.148 90.6414 314.274 89.351 313.149 88.2479L313.92 90.8287C313.92 90.8287 313.774 90.9328 313.712 90.9744C311.65 89.9962 309.922 88.5393 308.235 86.9992C308.193 87.0824 308.131 87.124 308.152 87.1657C308.214 88.1231 307.902 88.4144 307.048 88.019C305.382 87.2281 303.758 86.354 302.133 85.5007C301.779 85.3133 301.446 85.1052 300.988 84.8555C300.988 85.1885 300.947 85.4174 300.947 85.6463C300.926 86.7494 300.447 87.0408 299.51 86.458C298.323 85.7296 297.177 84.9179 296.011 84.1478C295.303 83.6899 294.595 83.2529 293.866 82.8158C293.825 82.8574 293.783 82.8991 293.741 82.9199C293.971 83.5234 294.22 84.127 294.429 84.7306C294.554 85.1052 294.637 85.5215 294.699 85.9169C294.762 86.354 294.574 86.5413 294.116 86.4372C292.929 86.1667 291.742 85.8961 290.555 85.6047C289.639 85.3758 288.723 85.0636 287.828 84.8138C287.703 84.7722 287.536 84.793 287.265 84.7722C287.723 85.1885 288.077 85.5006 288.431 85.8128C288.39 85.8961 288.369 85.9793 288.327 86.0626C286.87 85.8545 285.391 85.6672 283.933 85.459C283.913 85.5215 283.871 85.5839 283.85 85.6463C283.954 85.8128 284.038 86.0002 284.163 86.1667C287.744 90.8495 290.493 96.0319 292.95 101.381C295.324 106.563 297.365 111.891 299.114 117.323C300.697 122.277 302.175 127.293 303.55 132.308C304.612 136.159 305.507 140.051 306.402 143.943C307.235 147.668 308.027 151.414 308.735 155.161C309.401 158.678 309.942 162.195 310.505 165.734C310.63 166.545 310.692 167.357 310.775 168.169C310.817 168.564 310.942 168.772 311.421 168.793C314.149 168.96 316.856 169.168 319.563 169.376C319.917 169.397 320.021 169.272 320.063 168.939C320.396 165.234 320.708 161.55 321.083 157.846C321.333 155.452 321.645 153.059 321.999 150.686C322.458 147.647 322.999 144.629 323.52 141.612C323.978 138.989 324.457 136.388 324.998 133.786C325.581 130.997 326.227 128.208 326.872 125.44C327.559 122.506 328.267 119.592 329.038 116.678C329.85 113.598 330.683 110.538 331.578 107.479C332.64 103.899 333.702 100.298 334.91 96.7603C336.805 91.1825 338.721 85.6047 340.824 80.0894C343.156 74.0329 345.655 68.018 348.237 62.0656C351.174 55.2806 354.422 48.6206 357.858 42.0854C359.316 39.2965 360.815 36.5284 362.294 33.7603C362.335 33.6979 362.356 33.6146 362.439 33.4065C361.835 33.3024 361.294 33.0943 360.732 33.1151C359.441 33.1776 358.15 33.3232 356.859 33.4689C356.067 33.5522 355.276 33.7187 354.485 33.8019C354.235 33.8228 353.964 33.7603 353.693 33.7395C353.652 33.6771 353.61 33.6146 353.589 33.5522L355.401 31.9704C355.401 31.9704 355.359 31.908 355.359 31.8664C354.714 32.0537 354.047 32.241 353.402 32.4283C350.903 33.0943 348.425 33.7603 345.926 34.4263C345.718 34.4888 345.51 34.4679 345.28 34.4888C344.468 34.572 344.156 34.2806 344.385 33.5106C344.76 32.2202 345.26 30.9506 345.697 29.6602C345.759 29.4937 345.801 29.348 345.926 29.0358C345.634 29.1815 345.468 29.244 345.322 29.348C342.844 30.9714 340.387 32.5948 337.909 34.1974C337.472 34.4679 336.993 34.7177 336.493 34.8634C335.868 35.0715 335.41 34.801 335.264 34.1558C335.139 33.5314 335.098 32.907 335.014 32.1786C334.223 32.6364 333.494 33.0943 332.745 33.5106C330.725 34.5928 328.705 35.6543 326.664 36.6741C326.31 36.8614 325.893 36.9447 325.498 36.9863C324.727 37.0695 324.436 36.7782 324.457 35.9873C324.457 35.7583 324.519 35.5294 324.561 35.1548C321.979 37.5899 319.313 39.7127 316.127 41.3569C315.877 39.6919 316.793 38.4432 317.043 37.0279C316.898 37.1944 316.731 37.3609 316.585 37.5274C315.315 38.901 314.066 40.2747 312.774 41.6067C312.608 41.7732 312.316 41.8148 312.087 41.9189C312.025 41.6483 311.858 41.3569 311.921 41.1072C312.316 39.2965 312.774 37.4858 313.212 35.6751C313.274 35.4461 313.358 35.1964 313.42 34.9675C313.378 34.9466 313.337 34.905 313.295 34.8842C313.149 35.0923 312.983 35.2796 312.858 35.4878C310.859 38.6305 308.86 41.794 306.861 44.9367C306.756 45.1032 306.527 45.3114 306.402 45.2905C306.257 45.2489 306.09 45.02 306.028 44.8327C305.882 44.4164 305.798 43.9793 305.694 43.5423C305.611 43.1885 305.549 42.8346 305.444 42.2935C303.029 45.7276 300.884 49.1825 297.906 51.9506C297.844 51.9506 297.761 51.9506 297.698 51.9298C297.656 51.3678 297.552 50.8059 297.615 50.244C297.885 47.5591 298.968 45.124 300.093 42.7098C300.468 41.9189 300.863 41.1488 301.238 40.3996C301.196 40.3371 301.176 40.2747 301.155 40.2747C300.239 40.0666 300.093 39.8376 300.572 39.0259C301.196 38.0061 301.904 37.0071 302.675 36.0913C304.528 33.9268 306.631 32.0329 309.068 30.5135C309.13 30.4719 309.193 30.4303 309.234 30.3887C309.234 30.3262 309.193 30.2846 309.193 30.2222C308.589 30.4095 308.006 30.5968 307.402 30.7841C306.756 30.9922 306.132 31.2628 305.465 31.4293C304.841 31.5958 304.174 31.6582 303.55 31.7623C303.529 31.6999 303.508 31.6374 303.487 31.575C303.716 31.4293 303.924 31.242 304.174 31.1379C307.235 29.8059 310.276 28.4531 313.378 27.1835C315.773 26.2053 318.168 25.2479 320.604 24.4362C322.707 23.7494 324.852 23.1875 326.997 22.7296C331.162 21.8763 335.368 21.6473 339.596 22.022C342.324 22.2717 345.031 22.688 347.717 23.1875C350.945 23.7702 354.068 24.79 357.129 25.9764C357.233 26.018 357.337 26.018 357.442 26.0388L357.525 25.8931C357.004 25.4977 356.505 25.0398 355.942 24.7068C355.109 24.2073 354.235 23.791 353.402 23.3332C353.194 23.2083 353.048 23.021 352.86 22.8545C353.027 22.6672 353.152 22.4174 353.36 22.3342C354.381 21.9595 355.401 21.6265 356.442 21.2727C356.609 21.2103 356.775 21.1686 356.942 21.1062C356.942 21.0438 356.942 21.0021 356.942 20.9397C356.421 20.794 355.901 20.6275 355.359 20.5443C352.923 20.1072 350.466 19.6701 348.029 19.2331C347.634 19.1706 347.217 19.0874 346.842 18.9417C346.426 18.796 346.322 18.4838 346.655 18.13C346.946 17.8178 347.28 17.5472 347.738 17.1102C343.281 16.236 338.95 15.3827 334.473 14.4878C335.722 13.1974 337.305 12.8228 338.679 12.0943V11.907C338.096 11.9486 337.534 12.0111 336.972 12.0527C333.911 12.24 330.85 12.6771 327.768 12.3649C327.768 12.3649 327.726 12.3649 327.705 12.3649C327.455 12.2608 327.185 12.1567 326.935 12.0527C327.101 11.8029 327.226 11.4699 327.455 11.3451C329.204 10.3669 330.995 9.40947 332.765 8.45209C332.994 8.32721 333.244 8.22315 333.473 8.09827C333.473 8.03584 333.473 7.9734 333.473 7.91096C333.203 7.84852 332.911 7.72365 332.64 7.74446C330.183 7.82771 327.747 7.93177 325.29 8.01502C323.957 8.05665 322.603 8.05665 321.271 8.05665C321.166 8.05665 321.062 8.05665 320.979 7.99421C320.792 7.89015 320.646 7.76527 320.458 7.66121C320.563 7.51552 320.646 7.28658 320.792 7.20333C321.52 6.78708 322.249 6.41245 322.999 6.01701C323.27 5.87132 323.54 5.74644 323.79 5.55913C322.041 5.76725 320.375 6.53732 318.397 6.20432C318.626 5.87132 318.751 5.60075 318.959 5.43425C321.833 2.99917 325.123 1.50065 328.913 1.18846C332.328 0.897086 335.66 1.33415 338.908 2.3956C338.992 2.41641 339.096 2.41641 339.367 2.45804C339.158 2.24991 339.054 2.14585 338.95 2.02097C338.783 1.83366 338.534 1.64634 338.492 1.43822C338.429 1.06359 338.534 0.647333 338.554 0.272705C338.846 0.293518 339.158 0.272705 339.429 0.376769C343.052 1.54228 346.467 3.14486 349.737 5.08044C353.173 7.12008 356.359 9.51354 359.191 12.3441C362.148 15.2995 364.084 18.8792 365.313 22.8545C365.625 23.8535 365.813 24.8941 366.084 25.8931C366.125 26.1012 366.208 26.2886 366.354 26.4759C366.646 23.3748 366 20.3361 365.48 17.2975C365.542 17.2767 365.605 17.2559 365.667 17.235C365.979 17.5056 366.313 17.7762 366.625 18.0676C366.667 18.0259 366.729 18.0051 366.771 17.9635C366.542 16.3609 365.48 15.0289 365.251 13.4055C365.709 13.7593 366.146 14.134 366.604 14.4878C366.667 14.4461 366.729 14.4253 366.792 14.3837C366.708 14.0923 366.667 13.7801 366.562 13.4888C366 12.1151 365.396 10.7415 364.813 9.36785C364.709 9.1181 364.647 8.86834 364.667 8.53534C365.251 8.86834 365.834 9.18053 366.396 9.51354C366.458 9.51354 366.5 9.47191 366.562 9.4511C366.521 9.20135 366.562 8.90997 366.438 8.68103C365.917 7.57796 365.355 6.4957 364.813 5.39263C364.688 5.12206 364.667 4.80987 364.605 4.53931C364.938 4.47687 365.292 4.31037 365.584 4.3728C366.812 4.60174 367.791 5.30937 368.728 6.05863C370.29 7.28658 371.581 8.74347 372.414 10.575C373.247 12.3857 373.518 14.2796 373.372 16.2568C373.372 16.569 373.414 16.8812 373.434 17.1934C373.518 17.235 373.58 17.2559 373.663 17.2975C374.038 16.8604 374.392 16.4233 374.871 15.8406C374.33 19.462 372.976 22.6463 371.498 25.8099C371.539 25.8515 371.581 25.8723 371.623 25.9139C371.748 25.8307 371.893 25.7474 371.997 25.6434C375.225 22.6047 378.911 20.3569 383.201 19.2122C385.054 18.7336 386.97 18.4838 388.886 18.2757C392.176 17.901 395.487 17.9635 398.798 18.2757C401.984 18.5879 405.107 19.1706 408.168 20.0656C408.647 20.2113 408.752 20.5026 408.46 20.8148C408.21 21.127 407.835 21.3351 407.481 21.5641C407.315 21.6681 407.086 21.6473 406.857 21.8138C407.169 21.9179 407.46 22.0428 407.773 22.1468C411.563 23.3748 414.999 25.2063 417.768 28.1201C419.851 30.3054 421.183 32.907 421.933 35.8208C421.975 36.0081 421.912 36.2162 421.891 36.4243C421.683 36.3827 421.392 36.4035 421.267 36.2578C420.267 35.3213 419.309 34.3639 418.351 33.4273C418.206 33.2816 418.081 33.1359 417.935 32.9902C417.893 33.0111 417.852 33.0527 417.81 33.0735C417.997 33.3857 418.206 33.6979 418.372 34.0309C418.726 34.7177 419.122 35.3837 419.413 36.0913C419.622 36.57 419.413 36.7782 418.914 36.5908C418.455 36.4035 417.977 36.1746 417.581 35.8832C415.29 34.1974 413.041 32.4907 410.751 30.8049C410.23 30.4303 409.689 30.0973 409.126 29.7643C408.939 29.6602 408.731 29.6186 408.522 29.5353C408.481 29.577 408.439 29.6186 408.398 29.6602C408.647 30.0973 408.939 30.5343 409.168 30.9714C410.001 32.6364 410.834 34.3014 411.625 35.9665C411.709 36.133 411.625 36.3619 411.625 36.57C411.396 36.57 411.125 36.6117 410.959 36.5076C409.73 35.7375 408.46 34.9883 407.294 34.1349C405.565 32.8446 403.9 31.4709 402.192 30.1389C402.109 30.0765 402.005 30.014 401.859 29.9932C402.546 31.4085 403.65 32.6156 403.962 34.4055C399.756 32.6364 395.716 30.9298 391.53 29.1607C391.655 29.7643 391.78 30.1805 391.843 30.6176C391.905 31.0963 391.634 31.3044 391.218 31.1379C390.427 30.8257 389.656 30.4303 388.886 30.0973C386.616 29.1399 384.346 28.1825 382.076 27.2459C381.972 27.2043 381.847 27.2251 381.597 27.2043C382.16 27.8703 382.638 28.4323 383.097 29.015C383.43 29.4521 383.742 29.8892 383.992 30.3887C384.304 30.9922 384.096 31.242 383.43 31.1171C381.868 30.7841 380.306 30.7217 378.724 30.9506C378.578 30.9506 378.432 30.9922 378.307 31.1587C378.765 31.2212 379.244 31.3252 379.723 31.3669C386.137 31.9912 392.217 33.8019 397.84 36.9447C402.171 39.3589 405.961 42.46 409.189 46.2479C411.5 48.9744 413.77 51.7425 415.603 54.8228C416.019 55.5304 416.311 56.3213 416.623 57.0913C416.706 57.2578 416.727 57.466 416.727 57.6533C416.727 58.1736 416.581 58.2777 416.019 58.1528C416.227 58.9437 416.477 59.6929 416.623 60.463C416.915 61.9823 417.164 63.5225 417.414 65.0626C417.477 65.4372 417.456 65.8535 417.414 66.2281C417.31 67.1022 417.102 67.2271 416.165 66.9357C416.269 67.685 416.394 68.3718 416.477 69.0586C416.79 71.9724 416.852 74.8446 415.478 77.5502C415.269 77.9665 414.978 78.3203 414.728 78.7157C414.666 78.7157 414.603 78.7157 414.52 78.7157C414.332 78.2786 414.041 77.8832 413.978 77.4253C413.624 75.4481 413.333 73.4501 413.02 71.4521C412.958 71.015 412.916 70.578 412.854 69.9952C412.666 70.1825 412.562 70.2866 412.458 70.3906C411.979 70.8901 411.521 71.4313 411.001 71.8892C410.605 72.243 410.376 72.0973 410.272 71.577C409.793 69.1627 409.293 66.7484 408.814 64.3342C408.814 64.2717 408.731 64.2093 408.627 64.0428C408.21 64.9169 408.293 65.9159 407.419 66.6444C407.169 66.1449 406.836 65.7286 406.732 65.2499C406.336 63.4808 406.003 61.6701 405.649 59.8802C405.628 59.7554 405.586 59.6305 405.545 59.5056C405.482 59.5056 405.441 59.5056 405.378 59.4848C405.336 59.6721 405.274 59.8802 405.232 60.0675C405.045 61.0041 404.858 61.9407 404.649 62.8564C404.587 63.1062 404.358 63.2935 404.212 63.5225C404.025 63.356 403.754 63.2103 403.65 62.9813C403.004 61.7534 402.338 60.5462 401.817 59.2767C401.172 57.6533 400.672 55.9883 400.11 54.3441C400.11 54.3232 400.047 54.3024 399.964 54.2192C399.881 54.4065 399.797 54.5522 399.735 54.7187C399.422 55.5512 398.777 55.7801 398.173 55.1349C397.403 54.3024 396.674 53.3867 396.091 52.4293C394.904 50.4937 393.821 48.4957 392.696 46.5185C392.634 46.4144 392.53 46.3104 392.426 46.1647C392.176 46.6017 391.947 46.9764 391.697 47.351C390.989 48.3708 390.135 48.4124 389.51 47.351C388.906 46.3104 388.448 45.2073 387.907 44.125C386.97 42.2311 386.012 40.3371 385.054 38.4432C384.992 38.3183 384.887 38.2142 384.7 37.9645C384.575 38.9219 384.492 39.7127 384.325 40.5036C384.2 41.1904 384.034 41.8773 383.784 42.5225C383.409 43.5007 383.097 43.6047 382.326 42.8971C381.139 41.8356 379.994 40.7118 378.89 39.5671C377.724 38.3807 376.62 37.1528 375.496 35.9665C375.371 35.8416 375.246 35.7375 374.996 35.6959C375.142 36.0289 375.329 36.3619 375.413 36.6949C375.517 37.1112 375.558 37.5482 375.642 37.9645C375.246 37.798 374.809 37.6939 374.496 37.4442C373.205 36.466 371.935 35.4253 370.644 34.4263C370.457 34.2806 370.248 34.1974 370.061 34.0725L369.936 34.1766C370.019 34.3223 370.103 34.4888 370.207 34.6136C373.83 38.9635 376.433 43.8753 378.245 49.2241C379.369 52.5542 380.14 55.9675 380.66 59.464C381.222 63.1895 381.514 66.9149 381.327 70.682C381.327 71.0775 381.243 71.4521 381.181 71.8267C381.16 71.9724 381.014 72.0973 380.931 72.243C380.785 72.1597 380.577 72.0973 380.514 71.9724C380.202 71.2856 379.89 70.5988 379.661 69.8703C379.411 69.1003 379.265 68.2886 379.078 67.4977C379.036 67.352 378.953 67.2271 378.828 66.9774C378.744 67.2271 378.682 67.352 378.682 67.4769C378.682 72.4927 377.37 77.238 375.433 81.796C374.83 83.2321 373.892 84.5225 373.08 85.8753C372.914 86.1458 372.664 86.3956 372.414 86.6037C372.185 86.7702 371.748 87.02 371.623 86.9159C371.373 86.7494 371.144 86.354 371.165 86.0626C371.206 84.4392 371.289 82.795 371.435 81.1716C371.539 80.0894 371.768 79.0279 371.977 77.8208C371.539 78.0497 371.248 78.2787 370.894 78.4035C370.581 78.5076 370.248 78.4868 369.915 78.5284C369.894 78.1954 369.79 77.8624 369.832 77.5294C370.123 75.4065 370.498 73.3044 370.769 71.1815C370.998 69.4541 371.165 67.7058 371.352 65.9575C371.352 65.8119 371.352 65.6662 371.248 65.4997C370.519 66.9565 369.769 68.3926 369.04 69.8495C368.957 69.8287 368.895 69.8079 368.811 69.7871C368.811 67.5393 369.27 65.3332 369.624 63.1062C369.957 60.9001 370.373 58.6939 370.686 56.467C369.79 57.8198 369.27 59.4015 368.145 60.5671C368.083 60.5671 368.041 60.5254 367.978 60.5254C367.978 60.0259 367.937 59.5264 367.978 59.0477C368.291 56.571 368.624 54.1151 368.936 51.6592C369.02 51.014 369.124 50.348 369.228 49.7028C369.29 49.3698 369.145 49.3074 368.853 49.2866C367.708 49.1825 367.291 48.7454 367.229 47.5799C367.146 46.0606 367.166 44.5413 367.041 43.022C366.875 41.1904 366.562 39.3797 366.313 37.5482C366.292 37.3609 366.188 37.1944 366.084 36.903C365.896 37.2152 365.792 37.3817 365.709 37.569C362.314 44.3123 359.191 51.1805 356.38 58.1944C354.422 63.023 352.506 67.8931 350.716 72.7841C348.945 77.6543 347.321 82.5661 345.718 87.4779C344.427 91.4531 343.261 95.4491 342.115 99.4452C341.178 102.734 340.324 106.043 339.491 109.331C338.7 112.411 337.971 115.513 337.263 118.614C336.722 121.007 336.264 123.401 335.785 125.794C335.327 128.125 334.869 130.435 334.452 132.766C334.036 135.097 333.661 137.449 333.307 139.78C332.89 142.507 332.474 145.233 332.12 147.96C331.828 150.103 331.599 152.247 331.391 154.391C331.162 156.659 330.954 158.928 330.787 161.176C330.6 163.486 330.475 165.796 330.308 168.106C330.266 168.647 330.266 169.188 330.183 169.73C330.1 170.25 330.267 170.479 330.808 170.52C332.411 170.645 334.036 170.77 335.639 170.937C338.971 171.311 342.282 171.686 345.593 172.102C347.717 172.373 349.799 172.831 351.757 173.767C352.236 173.996 352.756 174.246 353.131 174.641C353.714 175.245 354.401 175.453 355.172 175.495C357.858 175.62 360.544 175.765 363.21 175.849C367.833 175.973 372.435 175.973 377.058 176.161C379.411 176.265 381.785 176.535 384.117 176.972C387.595 177.618 390.926 178.7 393.883 180.739C394.446 181.135 394.883 181.697 395.341 182.217C395.508 182.405 395.57 182.696 395.695 183.029C395.237 183.112 394.862 183.195 394.487 183.237C391.988 183.424 389.49 183.632 386.97 183.778C375.267 184.444 363.543 184.507 351.819 184.548C348.779 184.548 345.739 184.736 342.719 184.923C339.991 185.11 337.284 185.61 334.619 186.234C332.411 186.734 330.183 187.171 327.934 187.504C324.873 187.962 321.812 188.357 318.751 188.732C317.189 188.919 315.607 189.002 314.045 189.148C313.774 189.169 313.524 189.273 313.274 189.356H292.471L292.263 189.273Z" fill="#019BBD"/>
<path d="M267.357 75.157C267.003 43.709 255.633 41.0866 252.739 41.0034C252.322 41.0034 252.197 40.9826 252.197 40.9826C255.05 39.6714 258.028 39.2135 261.006 39.38C270.46 39.9419 279.164 48.1629 284.037 67.269C284.287 66.5197 284.599 65.7913 284.974 65.1045C285.203 64.709 285.474 64.376 285.765 64.0222C285.911 63.8349 286.057 63.6476 286.203 63.4603C286.265 63.3978 286.307 63.3146 286.369 63.2521C286.911 62.6486 287.598 62.1283 288.264 61.6704C289.493 60.8171 290.909 60.2551 292.325 59.7764C296.24 58.4652 300.509 58.049 304.715 57.9241C296.177 29.7645 275.687 21.7516 261.256 21.0024C252.572 20.4404 246.179 22.2928 246.179 22.2928C246.117 40.2333 246.075 58.1738 246.013 76.1352C252.76 73.6793 260.215 74.8032 267.378 75.157H267.357Z" fill="#231F20"/>
<path d="M297.843 88.7059C296.011 88.0607 294.178 87.4363 292.283 86.9992C291.909 86.916 291.513 86.8327 291.117 86.7495C290.867 86.7079 290.597 86.6454 290.347 86.6038C289.785 86.5205 289.826 86.5205 290.493 86.6038C289.722 86.3124 288.535 86.4789 287.723 86.4997C287.536 86.4997 287.348 86.4997 287.161 86.4581C287.785 93.2014 288.098 100.715 287.994 109.144C287.515 152.955 277.207 165.838 272.063 165.859C266.628 165.838 266.837 157.18 266.837 156.576C266.837 156.576 266.982 134.223 267.17 106.834C264.421 108.603 261.735 110.434 258.944 112.162C254.842 114.701 250.469 116.803 245.846 118.177C245.784 136.263 245.742 154.37 245.68 172.456C254.946 172.456 264.192 172.456 273.459 172.498C273.459 172.56 307.068 172.435 308.63 91.8486C304.903 91.2658 301.383 89.9546 297.843 88.7059Z" fill="#231F20"/>
<path d="M347.3 82.3995C347.737 82.1081 347.716 81.0259 348.133 80.7137C349.778 79.4025 351.277 77.9456 352.797 76.4679C354.671 74.6364 356.629 72.9089 358.773 71.3896C359.086 71.1606 359.461 71.0149 359.836 70.9109C351.589 62.6482 348.986 58.4857 349.07 54.1775C349.132 50.119 350.777 48.0794 353.568 48.7038C357.024 49.4946 362.251 54.2399 366.749 62.4609C369.185 66.9773 372.975 69.9327 377.057 70.9109C383.762 72.451 390.821 68.3509 391.071 54.4272C391.113 52.2419 391.03 49.8276 390.676 47.1636C379.493 43.459 368.228 40.1289 356.858 37.2152C356.858 37.2152 356.191 36.8613 355.129 36.5908C351.298 35.5501 340.719 35.4877 340.344 58.0278C340.282 61.8782 340.782 71.9307 346.841 81.6086L347.32 82.3787L347.3 82.3995Z" fill="#231F20"/>
<path d="M331.662 57.4244C331.807 48.5374 331.953 39.6504 332.099 30.7634C326.039 29.5146 319.959 28.3699 313.857 27.3501L313.42 58.694C319.5 58.3402 325.581 57.9031 331.662 57.4452V57.4244Z" fill="#231F20"/>
</g>
<defs>
<clipPath id="clip0_131_2">
<rect width="457" height="189" fill="white" transform="translate(0 0.272705)"/>
</clipPath>
</defs>
</svg>
